<svg width="26" height="26" viewBox="0 0 26 26" fill="none" xmlns="http://www.w3.org/2000/svg">
<path d="M11.7 14.3C11.7 13.9552 11.837 13.6246 12.0808 13.3808C12.3246 13.137 12.6552 13 13 13C13.3448 13 13.6754 13.137 13.9192 13.3808C14.163 13.6246 14.3 13.9552 14.3 14.3V18.2C14.3 18.5448 14.163 18.8754 13.9192 19.1192C13.6754 19.363 13.3448 19.5 13 19.5C12.6552 19.5 12.3246 19.363 12.0808 19.1192C11.837 18.8754 11.7 18.5448 11.7 18.2V14.3ZM13 7.15C12.4828 7.15 11.9868 7.35545 11.6211 7.72114C11.2554 8.08684 11.05 8.58283 11.05 9.1C11.05 9.61717 11.2554 10.1132 11.6211 10.4789C11.9868 10.8446 12.4828 11.05 13 11.05C13.5172 11.05 14.0132 10.8446 14.3789 10.4789C14.7446 10.1132 14.95 9.61717 14.95 9.1C14.95 8.58283 14.7446 8.08684 14.3789 7.72114C14.0132 7.35545 13.5172 7.15 13 7.15ZM0 13C0 9.55219 1.36964 6.24558 3.80761 3.80761C6.24558 1.36964 9.55219 0 13 0C16.4478 0 19.7544 1.36964 22.1924 3.80761C24.6304 6.24558 26 9.55219 26 13C26 16.4478 24.6304 19.7544 22.1924 22.1924C19.7544 24.6304 16.4478 26 13 26C9.55219 26 6.24558 24.6304 3.80761 22.1924C1.36964 19.7544 0 16.4478 0 13ZM13 2.6C10.2417 2.6 7.59647 3.69571 5.64609 5.64609C3.69571 7.59647 2.6 10.2417 2.6 13C2.6 15.7583 3.69571 18.4035 5.64609 20.3539C7.59647 22.3043 10.2417 23.4 13 23.4C15.7583 23.4 18.4035 22.3043 20.3539 20.3539C22.3043 18.4035 23.4 15.7583 23.4 13C23.4 10.2417 22.3043 7.59647 20.3539 5.64609C18.4035 3.69571 15.7583 2.6 13 2.6Z" fill="#006776"/>
</svg>
